<svg width="265" height="265" viewBox="0 0 265 265" fill="none" xmlns="http://www.w3.org/2000/svg">
<g clip-path="url(#clip0_45_541)">
<path d="M132.335 0C77.1049 0 60.9519 0.0569994 57.8119 0.316999C46.4779 1.26 39.4249 3.045 31.7419 6.871C25.8199 9.813 21.1499 13.222 16.5409 18.001C8.14689 26.717 3.05989 37.44 1.21789 50.185C0.322888 56.373 0.0618889 57.635 0.00888889 89.241C-0.0111111 99.777 0.00888889 113.641 0.00888889 132.24C0.00888889 187.44 0.0708929 203.581 0.334893 206.716C1.25089 217.748 2.97989 224.689 6.64289 232.281C13.6429 246.814 27.0129 257.724 42.7629 261.795C48.2159 263.199 54.2389 263.973 61.9709 264.339C65.2479 264.481 98.6399 264.583 132.052 264.583C165.465 264.583 198.878 264.543 202.072 264.38C211.026 263.958 216.225 263.26 221.973 261.774C237.825 257.684 250.95 246.936 258.093 232.199C261.684 224.79 263.505 217.585 264.329 207.129C264.509 204.849 264.584 168.503 264.584 132.205C264.584 95.901 264.502 59.622 264.324 57.342C263.489 46.717 261.668 39.572 257.96 32.022C254.918 25.84 251.54 21.223 246.636 16.503C237.884 8.142 227.181 3.053 214.426 1.213C208.246 0.319001 207.016 0.055 175.393 0H132.335Z" fill="url(#paint0_radial_45_541)"/>
<path d="M132.335 0C77.1049 0 60.9519 0.0569994 57.8119 0.316999C46.4779 1.26 39.4249 3.045 31.7419 6.871C25.8199 9.813 21.1499 13.222 16.5409 18.001C8.14689 26.717 3.05989 37.44 1.21789 50.185C0.322888 56.373 0.0618889 57.635 0.00888889 89.241C-0.0111111 99.777 0.00888889 113.641 0.00888889 132.24C0.00888889 187.44 0.0708929 203.581 0.334893 206.716C1.25089 217.748 2.97989 224.689 6.64289 232.281C13.6429 246.814 27.0129 257.724 42.7629 261.795C48.2159 263.199 54.2389 263.973 61.9709 264.339C65.2479 264.481 98.6399 264.583 132.052 264.583C165.465 264.583 198.878 264.543 202.072 264.38C211.026 263.958 216.225 263.26 221.973 261.774C237.825 257.684 250.95 246.936 258.093 232.199C261.684 224.79 263.505 217.585 264.329 207.129C264.509 204.849 264.584 168.503 264.584 132.205C264.584 95.901 264.502 59.622 264.324 57.342C263.489 46.717 261.668 39.572 257.96 32.022C254.918 25.84 251.54 21.223 246.636 16.503C237.884 8.142 227.181 3.053 214.426 1.213C208.246 0.319001 207.016 0.055 175.393 0H132.335Z" fill="url(#paint1_radial_45_541)"/>
<path d="M132.335 0C77.1049 0 60.9519 0.0569994 57.8119 0.316999C46.4779 1.26 39.4249 3.045 31.7419 6.871C25.8199 9.813 21.1499 13.222 16.5409 18.001C8.14689 26.717 3.05989 37.44 1.21789 50.185C0.322888 56.373 0.0618889 57.635 0.00888889 89.241C-0.0111111 99.777 0.00888889 113.641 0.00888889 132.24C0.00888889 187.44 0.0708929 203.581 0.334893 206.716C1.25089 217.748 2.97989 224.689 6.64289 232.281C13.6429 246.814 27.0129 257.724 42.7629 261.795C48.2159 263.199 54.2389 263.973 61.9709 264.339C65.2479 264.481 98.6399 264.583 132.052 264.583C165.465 264.583 198.878 264.543 202.072 264.38C211.026 263.958 216.225 263.26 221.973 261.774C237.825 257.684 250.95 246.936 258.093 232.199C261.684 224.79 263.505 217.585 264.329 207.129C264.509 204.849 264.584 168.503 264.584 132.205C264.584 95.901 264.502 59.622 264.324 57.342C263.489 46.717 261.668 39.572 257.96 32.022C254.918 25.84 251.54 21.223 246.636 16.503C237.884 8.142 227.181 3.053 214.426 1.213C208.246 0.319001 207.016 0.055 175.393 0H132.335Z" fill="url(#paint2_radial_45_541)"/>
<path d="M132.335 0C77.1049 0 60.9519 0.0569994 57.8119 0.316999C46.4779 1.26 39.4249 3.045 31.7419 6.871C25.8199 9.813 21.1499 13.222 16.5409 18.001C8.14689 26.717 3.05989 37.44 1.21789 50.185C0.322888 56.373 0.0618889 57.635 0.00888889 89.241C-0.0111111 99.777 0.00888889 113.641 0.00888889 132.24C0.00888889 187.44 0.0708929 203.581 0.334893 206.716C1.25089 217.748 2.97989 224.689 6.64289 232.281C13.6429 246.814 27.0129 257.724 42.7629 261.795C48.2159 263.199 54.2389 263.973 61.9709 264.339C65.2479 264.481 98.6399 264.583 132.052 264.583C165.465 264.583 198.878 264.543 202.072 264.38C211.026 263.958 216.225 263.26 221.973 261.774C237.825 257.684 250.95 246.936 258.093 232.199C261.684 224.79 263.505 217.585 264.329 207.129C264.509 204.849 264.584 168.503 264.584 132.205C264.584 95.901 264.502 59.622 264.324 57.342C263.489 46.717 261.668 39.572 257.96 32.022C254.918 25.84 251.54 21.223 246.636 16.503C237.884 8.142 227.181 3.053 214.426 1.213C208.246 0.319001 207.016 0.055 175.393 0H132.335Z" fill="url(#paint3_radial_45_541)"/>
<path d="M132.345 33.973C105.629 33.973 102.275 34.09 91.7819 34.567C81.3099 35.047 74.1619 36.703 67.9059 39.134C61.4359 41.644 55.9479 45.004 50.4799 50.469C45.0079 55.933 41.6459 61.417 39.1259 67.881C36.6859 74.133 35.0259 81.278 34.5559 91.739C34.0859 102.225 33.9629 105.577 33.9629 132.274C33.9629 158.971 34.0819 162.311 34.5569 172.796C35.0389 183.261 36.6969 190.405 39.1269 196.655C41.6419 203.12 45.0029 208.605 50.4729 214.069C55.9389 219.537 61.4279 222.903 67.8929 225.414C74.1529 227.845 81.3029 229.502 91.7739 229.981C102.267 230.458 105.618 230.575 132.333 230.575C159.052 230.575 162.394 230.458 172.888 229.981C183.36 229.501 190.518 227.845 196.776 225.414C203.244 222.904 208.724 219.537 214.19 214.069C219.662 208.605 223.024 203.12 225.544 196.657C227.963 190.405 229.623 183.259 230.114 172.799C230.586 162.313 230.709 158.971 230.709 132.274C230.709 105.577 230.586 102.227 230.115 91.741C229.623 81.276 227.963 74.133 225.545 67.883C223.024 61.417 219.662 55.933 214.19 50.469C208.718 45.001 203.246 41.642 196.77 39.134C190.499 36.703 183.346 35.046 172.873 34.567C162.38 34.09 159.039 33.973 132.315 33.973H132.345ZM123.52 51.688C126.14 51.684 129.062 51.688 132.345 51.688C158.611 51.688 161.725 51.782 172.097 52.253C181.688 52.691 186.894 54.293 190.361 55.638C194.952 57.42 198.225 59.55 201.666 62.99C205.109 66.43 207.241 69.707 209.028 74.295C210.374 77.755 211.979 82.958 212.416 92.542C212.886 102.905 212.989 106.017 212.989 132.252C212.989 158.485 212.887 161.598 212.416 171.961C211.976 181.545 210.374 186.747 209.028 190.208C207.245 194.795 205.109 198.062 201.666 201.5C198.223 204.941 194.954 207.07 190.361 208.852C186.898 210.204 181.688 211.802 172.097 212.24C161.727 212.71 158.611 212.813 132.345 212.813C106.077 212.813 102.965 212.711 92.5939 212.24C83.0019 211.797 77.7969 210.196 74.3269 208.85C69.7369 207.069 66.4569 204.939 63.0139 201.498C59.5709 198.058 57.4399 194.789 55.6519 190.2C54.3059 186.739 52.7019 181.537 52.2649 171.953C51.7929 161.59 51.6989 158.477 51.6989 132.227C51.6989 105.977 51.7929 102.88 52.2649 92.517C52.7029 82.933 54.3049 77.731 55.6519 74.267C57.4349 69.679 59.5709 66.402 63.0139 62.962C66.4569 59.521 69.7359 57.392 74.3269 55.605C77.7949 54.254 83.0019 52.656 92.5939 52.216C101.669 51.806 105.186 51.684 123.52 51.663V51.688ZM184.857 68.01C178.339 68.01 173.052 73.287 173.052 79.802C173.052 86.314 178.339 91.598 184.857 91.598C191.374 91.598 196.661 86.314 196.661 79.802C196.661 73.289 191.374 68.006 184.856 68.006L184.857 68.01ZM132.345 81.792C104.445 81.792 81.8259 104.395 81.8259 132.274C81.8259 160.153 104.446 182.745 132.346 182.745C160.246 182.745 182.856 160.153 182.856 132.274C182.856 104.395 160.243 81.792 132.343 81.792H132.345ZM132.345 99.507C150.455 99.507 165.137 114.177 165.137 132.274C165.137 150.37 150.454 165.041 132.345 165.041C114.235 165.041 99.5539 150.37 99.5539 132.274C99.5539 114.176 114.234 99.507 132.345 99.507Z" fill="white"/>
</g>
<defs>
<radialGradient id="paint0_radial_45_541" cx="0" cy="0" r="1" gradientTransform="matrix(-162.708 45.8876 -33.0603 -117.223 256.041 124.013)" gradientUnits="userSpaceOnUse">
<stop stop-color="#FF005F"/>
<stop offset="1" stop-color="#FC01D8"/>
</radialGradient>
<radialGradient id="paint1_radial_45_541" cx="0" cy="0" r="1" gradientUnits="userSpaceOnUse" gradientTransform="translate(70.2786 284.962) rotate(-90) scale(211.197 224.076)">
<stop stop-color="#FFCC00"/>
<stop offset="0.124" stop-color="#FFCC00"/>
<stop offset="0.567" stop-color="#FE4A05"/>
<stop offset="0.694" stop-color="#FF0F3F"/>
<stop offset="1" stop-color="#FE0657" stop-opacity="0"/>
</radialGradient>
<radialGradient id="paint2_radial_45_541" cx="0" cy="0" r="1" gradientTransform="matrix(43.8366 -75.532 98.334 57.0707 138.977 260.852)" gradientUnits="userSpaceOnUse">
<stop stop-color="#FFCC00"/>
<stop offset="1" stop-color="#FFCC00" stop-opacity="0"/>
</radialGradient>
<radialGradient id="paint3_radial_45_541" cx="0" cy="0" r="1" gradientTransform="matrix(-160.921 45.3125 -15.434 -54.8266 35.8989 10.7729)" gradientUnits="userSpaceOnUse">
<stop stop-color="#780CFF"/>
<stop offset="1" stop-color="#820BFF" stop-opacity="0"/>
</radialGradient>
<clipPath id="clip0_45_541">
<rect width="264.583" height="264.583" fill="white"/>
</clipPath>
</defs>
</svg>
