<svg width="48" height="48" viewBox="0 0 48 48" fill="none" xmlns="http://www.w3.org/2000/svg">
<g clip-path="url(#clip0_41_472)">
<path d="M24.0082 -0.000488281C13.9884 -0.000488281 11.0579 0.0098528 10.4882 0.0572034C8.43202 0.228101 7.15246 0.551936 5.75843 1.24623C4.68424 1.7796 3.83683 2.39825 3.00085 3.26543C1.47801 4.84651 0.555125 6.7917 0.220949 9.10408C0.0585784 10.2267 0.0112279 10.4557 0.00161262 16.1896C-0.00201578 18.1009 0.00161262 20.6164 0.00161262 23.9903C0.00161262 34.0049 0.01268 36.9332 0.0607563 37.5017C0.226937 39.5032 0.540612 40.7624 1.20515 42.1397C2.47509 44.7763 4.9005 46.7556 7.75786 47.4942C8.74733 47.7491 9.84002 47.8893 11.2428 47.9559C11.8371 47.9817 17.8951 48.0002 23.9569 48.0002C30.0186 48.0002 36.0802 47.9929 36.6599 47.9633C38.2843 47.8868 39.2275 47.7601 40.2703 47.4905C43.1462 46.7484 45.5273 44.7986 46.823 42.1251C47.4747 40.7809 47.8051 39.4738 47.9546 37.5769C47.987 37.1632 48.0006 30.5693 48.0006 23.9841C48.0006 17.3979 47.9859 10.816 47.9535 10.4025C47.8022 8.47491 47.4716 7.17885 46.7991 5.80894C46.2472 4.68741 45.6344 3.84979 44.7447 2.99349C43.1569 1.47663 41.215 0.553387 38.9011 0.219574C37.78 0.0575663 37.5566 0.00948982 31.8198 -0.000488281H24.0082Z" fill="url(#paint0_radial_41_472)"/>
<path d="M24.0082 -0.000488281C13.9884 -0.000488281 11.0579 0.0098528 10.4882 0.0572034C8.43202 0.228101 7.15246 0.551936 5.75843 1.24623C4.68424 1.7796 3.83683 2.39825 3.00085 3.26543C1.47801 4.84651 0.555125 6.7917 0.220949 9.10408C0.0585784 10.2267 0.0112279 10.4557 0.00161262 16.1896C-0.00201578 18.1009 0.00161262 20.6164 0.00161262 23.9903C0.00161262 34.0049 0.01268 36.9332 0.0607563 37.5017C0.226937 39.5032 0.540612 40.7624 1.20515 42.1397C2.47509 44.7763 4.9005 46.7556 7.75786 47.4942C8.74733 47.7491 9.84002 47.8893 11.2428 47.9559C11.8371 47.9817 17.8951 48.0002 23.9569 48.0002C30.0186 48.0002 36.0802 47.9929 36.6599 47.9633C38.2843 47.8868 39.2275 47.7601 40.2703 47.4905C43.1462 46.7484 45.5273 44.7986 46.823 42.1251C47.4747 40.7809 47.8051 39.4738 47.9546 37.5769C47.987 37.1632 48.0006 30.5693 48.0006 23.9841C48.0006 17.3979 47.9859 10.816 47.9535 10.4025C47.8022 8.47491 47.4716 7.17885 46.7991 5.80894C46.2472 4.68741 45.6344 3.84979 44.7447 2.99349C43.1569 1.47663 41.215 0.553387 38.9011 0.219574C37.78 0.0575663 37.5566 0.00948982 31.8198 -0.000488281H24.0082Z" fill="url(#paint1_radial_41_472)"/>
<path d="M24.0082 -0.000488281C13.9884 -0.000488281 11.0579 0.0098528 10.4882 0.0572034C8.43202 0.228101 7.15246 0.551936 5.75843 1.24623C4.68424 1.7796 3.83683 2.39825 3.00085 3.26543C1.47801 4.84651 0.555125 6.7917 0.220949 9.10408C0.0585784 10.2267 0.0112279 10.4557 0.00161262 16.1896C-0.00201578 18.1009 0.00161262 20.6164 0.00161262 23.9903C0.00161262 34.0049 0.01268 36.9332 0.0607563 37.5017C0.226937 39.5032 0.540612 40.7624 1.20515 42.1397C2.47509 44.7763 4.9005 46.7556 7.75786 47.4942C8.74733 47.7491 9.84002 47.8893 11.2428 47.9559C11.8371 47.9817 17.8951 48.0002 23.9569 48.0002C30.0186 48.0002 36.0802 47.9929 36.6599 47.9633C38.2843 47.8868 39.2275 47.7601 40.2703 47.4905C43.1462 46.7484 45.5273 44.7986 46.823 42.1251C47.4747 40.7809 47.8051 39.4738 47.9546 37.5769C47.987 37.1632 48.0006 30.5693 48.0006 23.9841C48.0006 17.3979 47.9859 10.816 47.9535 10.4025C47.8022 8.47491 47.4716 7.17885 46.7991 5.80894C46.2472 4.68741 45.6344 3.84979 44.7447 2.99349C43.1569 1.47663 41.215 0.553387 38.9011 0.219574C37.78 0.0575663 37.5566 0.00948982 31.8198 -0.000488281H24.0082Z" fill="url(#paint2_radial_41_472)"/>
<path d="M24.0082 -0.000488281C13.9884 -0.000488281 11.0579 0.0098528 10.4882 0.0572034C8.43202 0.228101 7.15246 0.551936 5.75843 1.24623C4.68424 1.7796 3.83683 2.39825 3.00085 3.26543C1.47801 4.84651 0.555125 6.7917 0.220949 9.10408C0.0585784 10.2267 0.0112279 10.4557 0.00161262 16.1896C-0.00201578 18.1009 0.00161262 20.6164 0.00161262 23.9903C0.00161262 34.0049 0.01268 36.9332 0.0607563 37.5017C0.226937 39.5032 0.540612 40.7624 1.20515 42.1397C2.47509 44.7763 4.9005 46.7556 7.75786 47.4942C8.74733 47.7491 9.84002 47.8893 11.2428 47.9559C11.8371 47.9817 17.8951 48.0002 23.9569 48.0002C30.0186 48.0002 36.0802 47.9929 36.6599 47.9633C38.2843 47.8868 39.2275 47.7601 40.2703 47.4905C43.1462 46.7484 45.5273 44.7986 46.823 42.1251C47.4747 40.7809 47.8051 39.4738 47.9546 37.5769C47.987 37.1632 48.0006 30.5693 48.0006 23.9841C48.0006 17.3979 47.9859 10.816 47.9535 10.4025C47.8022 8.47491 47.4716 7.17885 46.7991 5.80894C46.2472 4.68741 45.6344 3.84979 44.7447 2.99349C43.1569 1.47663 41.215 0.553387 38.9011 0.219574C37.78 0.0575663 37.5566 0.00948982 31.8198 -0.000488281H24.0082Z" fill="url(#paint3_radial_41_472)"/>
<path d="M24.0101 6.16309C19.1641 6.16309 18.5561 6.18509 16.6521 6.27109C14.7521 6.35809 13.4551 6.65909 12.3201 7.10009C11.1297 7.54732 10.0512 8.24898 9.16006 9.15609C8.25201 10.0469 7.54903 11.1249 7.10006 12.3151C6.65806 13.4491 6.35706 14.7451 6.27106 16.6431C6.18606 18.5451 6.16406 19.1531 6.16406 23.9971C6.16406 28.8411 6.18506 29.4471 6.27106 31.3491C6.35906 33.2471 6.66006 34.5431 7.10106 35.6771C7.54888 36.8677 8.25124 37.9461 9.15906 38.8371C10.0501 39.7449 11.1285 40.4472 12.3191 40.8951C13.4551 41.3351 14.7521 41.6361 16.6521 41.7231C18.5551 41.8101 19.1631 41.8311 24.0101 41.8311C28.8571 41.8311 29.4641 41.8101 31.3671 41.7231C33.2671 41.6361 34.5661 41.3361 35.7011 40.8951C36.8918 40.4472 37.9703 39.7444 38.8611 38.8361C39.7691 37.9453 40.4721 36.8673 40.9211 35.6771C41.3591 34.5431 41.6601 33.2471 41.7491 31.3491C41.8351 29.4471 41.8571 28.8401 41.8571 23.9971C41.8571 19.1541 41.8351 18.5461 41.7491 16.6431C41.6601 14.7451 41.3591 13.4491 40.9201 12.3151C40.4713 11.1245 39.7683 10.0462 38.8601 9.15509C37.9691 8.24794 36.8906 7.54656 35.7001 7.10009C34.5621 6.66009 33.2651 6.35909 31.3651 6.27209C29.4611 6.18509 28.8551 6.16409 24.0061 6.16409L24.0101 6.16309ZM22.4101 9.37709H24.0101C28.7761 9.37709 29.3401 9.39409 31.2231 9.48009C32.9631 9.56009 33.9071 9.85009 34.5361 10.0941C35.3109 10.3797 36.0118 10.8356 36.5871 11.4281C37.1798 12.0032 37.6363 12.7036 37.9231 13.4781C38.1671 14.1071 38.4581 15.0501 38.5371 16.7891C38.6231 18.6691 38.6411 19.2341 38.6411 23.9931C38.6411 28.7531 38.6231 29.3171 38.5371 31.1971C38.4571 32.9371 38.1671 33.8801 37.9231 34.5071C37.6369 35.2819 37.1803 35.9825 36.5871 36.5571C36.012 37.1491 35.3115 37.6046 34.5371 37.8901C33.9071 38.1351 32.9631 38.4251 31.2231 38.5051C29.3411 38.5901 28.7761 38.6091 24.0111 38.6091C19.2451 38.6091 18.6811 38.5901 16.7991 38.5051C15.0591 38.4251 14.1151 38.1341 13.4851 37.8901C12.71 37.6043 12.0088 37.1485 11.4331 36.5561C10.8402 35.9812 10.3836 35.2807 10.0971 34.5061C9.85306 33.8781 9.56206 32.9351 9.48306 31.1961C9.39706 29.3161 9.38006 28.7511 9.38006 23.9891C9.38006 19.2271 9.39706 18.6651 9.48306 16.7851C9.56306 15.0451 9.85306 14.1021 10.0971 13.4741C10.3835 12.6991 10.84 11.9983 11.4331 11.4231C12.0089 10.8306 12.7101 10.3745 13.4851 10.0881C14.1151 9.84309 15.0591 9.55309 16.7991 9.47309C18.4461 9.39909 19.0841 9.37709 22.4091 9.37309L22.4101 9.37709ZM33.5371 12.3381C33.1139 12.3385 32.7003 12.4643 32.3487 12.6997C31.997 12.9351 31.7231 13.2695 31.5614 13.6605C31.3997 14.0516 31.3576 14.4818 31.4404 14.8968C31.5232 15.3118 31.7272 15.6929 32.0266 15.992C32.3259 16.2911 32.7072 16.4947 33.1223 16.5771C33.5374 16.6595 33.9675 16.617 34.3585 16.455C34.7494 16.293 35.0835 16.0187 35.3185 15.6668C35.5536 15.3149 35.6791 14.9013 35.6791 14.4781C35.6791 13.2961 34.7191 12.3381 33.5371 12.3381ZM24.0111 14.8381C18.9501 14.8381 14.8461 18.9401 14.8461 23.9981C14.8461 29.0561 18.9501 33.1541 24.0111 33.1541C29.0721 33.1541 33.1751 29.0551 33.1751 23.9971C33.1751 18.9391 29.0721 14.8381 24.0111 14.8381ZM24.0111 18.0531C25.5881 18.0526 27.1008 18.6785 28.2165 19.7932C29.3321 20.9078 29.9593 22.42 29.9601 23.9971C29.9598 24.7781 29.8057 25.5515 29.5065 26.273C29.2073 26.9945 28.769 27.65 28.2165 28.202C27.6639 28.7541 27.0081 29.1919 26.2863 29.4904C25.5646 29.789 24.7911 29.9425 24.0101 29.9421C22.433 29.9424 20.9204 29.3162 19.805 28.2013C18.6895 27.0864 18.0626 25.5742 18.0621 23.9971C18.0623 23.2162 18.2164 22.4429 18.5155 21.7216C18.8147 21.0002 19.2529 20.3448 19.8054 19.7929C20.3578 19.2409 21.0136 18.8032 21.7352 18.5046C22.4568 18.2061 23.2301 18.0527 24.0111 18.0531Z" fill="white"/>
</g>
<defs>
<radialGradient id="paint0_radial_41_472" cx="0" cy="0" r="1" gradientTransform="matrix(-29.5189 8.32492 -5.9978 -21.2663 46.4576 22.5023)" gradientUnits="userSpaceOnUse">
<stop stop-color="#FF005F"/>
<stop offset="1" stop-color="#FC01D8"/>
</radialGradient>
<radialGradient id="paint1_radial_41_472" cx="0" cy="0" r="1" gradientUnits="userSpaceOnUse" gradientTransform="translate(12.7585 51.6967) rotate(-90) scale(38.3156 40.6521)">
<stop stop-color="#FFCC00"/>
<stop offset="0.124" stop-color="#FFCC00"/>
<stop offset="0.567" stop-color="#FE4A05"/>
<stop offset="0.694" stop-color="#FF0F3F"/>
<stop offset="1" stop-color="#FE0657" stop-opacity="0"/>
</radialGradient>
<radialGradient id="paint2_radial_41_472" cx="0" cy="0" r="1" gradientUnits="userSpaceOnUse" gradientTransform="translate(25.2081 47.3249) rotate(-59.8697) scale(15.8433 20.6263)">
<stop stop-color="#FFCC00"/>
<stop offset="1" stop-color="#FFCC00" stop-opacity="0"/>
</radialGradient>
<radialGradient id="paint3_radial_41_472" cx="0" cy="0" r="1" gradientTransform="matrix(-29.1942 8.2206 -2.80004 -9.94665 6.51437 1.95369)" gradientUnits="userSpaceOnUse">
<stop stop-color="#780CFF"/>
<stop offset="1" stop-color="#820BFF" stop-opacity="0"/>
</radialGradient>
<clipPath id="clip0_41_472">
<rect width="48" height="48" fill="white"/>
</clipPath>
</defs>
</svg>
