<svg width="531" height="194" viewBox="0 0 531 194" fill="none" xmlns="http://www.w3.org/2000/svg">
<path d="M0 67.2C0 43.6778 0 31.9167 4.57773 22.9324C8.60441 15.0296 15.0296 8.60441 22.9324 4.57773C31.9167 0 43.6778 0 67.2 0H463.8C487.322 0 499.083 0 508.068 4.57773C515.97 8.60441 522.396 15.0296 526.422 22.9324C531 31.9167 531 43.6778 531 67.2V126.8C531 150.322 531 162.083 526.422 171.068C522.396 178.97 515.97 185.396 508.068 189.422C499.083 194 487.322 194 463.8 194H67.2C43.6778 194 31.9167 194 22.9324 189.422C15.0296 185.396 8.60441 178.97 4.57773 171.068C0 162.083 0 150.322 0 126.8V67.2Z" fill="#0066FF"/>
<path d="M158.875 31.9712C168.376 26.625 173.977 19.3111 177.096 13.8069C178.139 11.9667 181.242 12.3961 181.285 14.5108C181.397 20.0357 181.046 25.9658 180.788 29.4193C180.682 30.8393 181.954 31.6919 182.913 30.6384C186.201 27.0225 189.794 18.9784 191.659 14.4657C192.248 13.0393 194.134 12.7754 194.835 14.1504C200.948 26.1456 193.643 45.9155 191.572 51.0064C191.269 51.7528 191.401 52.5938 191.932 53.2004C206.904 70.3211 228.677 123.353 230.07 126.766C230.118 126.882 230.175 126.992 230.243 127.097L236.705 137.092C245.039 149.806 241.963 165.462 233.703 170.201C208.583 181.864 200.791 162.808 199.871 160.241C199.804 160.052 199.777 159.859 199.771 159.658C199.287 142.054 156.669 125.667 152.67 124.168C152.451 124.086 152.229 124.057 151.995 124.058C97.4056 124.369 154.592 192.658 180.54 194H45C5.5 194 1.02448 160.565 1 159.5C18.3373 139 13.4287 144.453 22.6898 132.918C24.1028 131.158 22.0275 128.45 20.049 129.536C19.2628 129.967 18.5161 130.381 17.8373 130.761C16.4076 131.561 14.6022 130.445 14.9836 128.851C20.2001 107.057 59.4328 77.4035 73.9549 67.0542C75.5653 65.9064 74.7252 63.3072 72.7476 63.3072H59.7376C57.9681 63.3072 57.1023 61.1759 58.3816 59.9534C102.319 17.9681 150.544 30.1581 157.304 32.1458C157.836 32.3024 158.391 32.2434 158.875 31.9712Z" fill="white"/>
<path d="M268.364 89V35.3266H278.639L310.306 73.9714H305.322V35.3266H317.59V89H307.392L275.648 50.3551H280.632V89H268.364ZM323.772 89V80.949L356.973 40.9239L358.506 45.4478H324.385V35.3266H369.548V43.3776L336.423 83.4026L334.89 78.8787H370.698V89H323.772ZM368.543 89L392.466 35.3266H404.734L428.734 89H415.699L396.07 41.614H400.977L381.271 89H368.543ZM380.504 77.4985L383.802 68.0674H411.405L414.779 77.4985H380.504ZM431.235 89V35.3266H454.468C459.273 35.3266 463.414 36.1189 466.89 37.7035C470.366 39.2371 473.05 41.4607 474.941 44.3744C476.832 47.2881 477.778 50.7641 477.778 54.8024C477.778 58.7895 476.832 62.24 474.941 65.1537C473.05 68.0162 470.366 70.2143 466.89 71.7478C463.414 73.2814 459.273 74.0481 454.468 74.0481H438.136L443.657 68.6041V89H431.235ZM465.356 89L451.938 69.5242H465.203L478.775 89H465.356ZM443.657 69.9843L438.136 64.1569H453.778C457.612 64.1569 460.475 63.339 462.366 61.7032C464.257 60.0163 465.203 57.7161 465.203 54.8024C465.203 51.8375 464.257 49.5372 462.366 47.9015C460.475 46.2657 457.612 45.4478 453.778 45.4478H438.136L443.657 39.5438V69.9843ZM488.233 89.6134C486.188 89.6134 484.425 88.9233 482.942 87.5431C481.511 86.1119 480.795 84.2972 480.795 82.0991C480.795 79.9011 481.511 78.1375 482.942 76.8085C484.425 75.4283 486.188 74.7382 488.233 74.7382C490.329 74.7382 492.092 75.4283 493.524 76.8085C494.955 78.1375 495.671 79.9011 495.671 82.0991C495.671 84.2972 494.955 86.1119 493.524 87.5431C492.092 88.9233 490.329 89.6134 488.233 89.6134Z" fill="white"/>
<path d="M268.364 159.087V105.413H292.747C298.575 105.413 303.712 106.538 308.159 108.787C312.606 110.985 316.082 114.078 318.587 118.065C321.092 122.052 322.344 126.781 322.344 132.25C322.344 137.669 321.092 142.397 318.587 146.435C316.082 150.422 312.606 153.541 308.159 155.79C303.712 157.988 298.575 159.087 292.747 159.087H268.364ZM280.786 148.889H292.134C295.712 148.889 298.805 148.224 301.412 146.895C304.07 145.515 306.114 143.573 307.546 141.068C309.028 138.563 309.769 135.624 309.769 132.25C309.769 128.825 309.028 125.886 307.546 123.432C306.114 120.928 304.07 119.011 301.412 117.682C298.805 116.302 295.712 115.611 292.134 115.611H280.786V148.889ZM340.07 127.036H365.91V136.697H340.07V127.036ZM340.99 149.119H370.203V159.087H328.645V105.413H369.207V115.381H340.99V149.119ZM392.373 159.087L369.217 105.413H382.635L402.878 152.953H394.98L415.529 105.413H427.874L404.641 159.087H392.373Z" fill="white"/>
<ellipse cx="166.171" cy="119.549" rx="27" ry="19.5" transform="rotate(30.6897 166.171 119.549)" fill="white"/>
</svg>
